<?xml version="1.0" encoding="UTF-8"?>
<svg width="142px" height="24px" viewBox="0 0 142 24" version="1.1" xmlns="http://www.w3.org/2000/svg" xmlns:xlink="http://www.w3.org/1999/xlink">
    <!-- JobAdder - https://JobAdder.com -->
    <title>JobAder Recruitment Software</title>
    <desc>JobAdder provide recruitment and applicant tracking software for inhouse recruitment teams and recruitment agencies across the globe.</desc>
    <defs></defs>
    <g id="Homepage" stroke="none" stroke-width="1" fill="none" fill-rule="evenodd">
        <g id="JA-Website-Homepage-Desktop" transform="translate(-160.000000, -38.000000)" fill="#1C7ED6">
            <g id="JA-Logo-Alt" transform="translate(160.000000, 38.000000)">
                <g id="Colour">
                    <path d="M131.995209,12.5336471 C131.995209,9.00894118 133.815709,5.64705882 138.352765,5.64705882 C141.004033,5.64705882 141.930368,7.18164706 141.930368,8.51952941 L141.930368,10.0861176 L141.771405,10.0861176 C141.132244,9.82447059 140.397515,9.56376471 139.279573,9.56376471 C137.363034,9.56376471 136.308014,10.6414118 136.308014,13.3171765 L136.308014,23.4352941 L135.126203,23.4352941 C133.209191,23.4352941 131.995209,22.4569412 131.995209,20.6282353 L131.995209,12.5336471 Z M13.2473516,15.1491765 C13.2473516,9.87764706 16.2813599,5.64705882 21.9581204,5.64705882 C27.2440981,5.64705882 30.2785794,9.87764706 30.2785794,14.5308235 C30.2785794,19.8023529 27.2440981,24 21.5673375,24 C16.2813599,24 13.2473516,19.8023529 13.2473516,15.1491765 Z M17.7825151,14.5308235 C17.7825151,18.0131765 19.0546885,20.096 21.9581204,20.096 C24.5034135,20.096 25.7429429,18.0131765 25.7429429,15.1491765 C25.7429429,11.6348235 24.4381253,9.552 21.5673375,9.552 C19.0546885,9.552 17.7825151,11.6348235 17.7825151,14.5308235 Z M6.28990178,0.941647059 L7.78916456,0.941647059 C9.77666944,0.941647059 10.7867439,1.97835294 10.7867439,3.95529412 L10.7867439,17.1774118 C10.7867439,20.808 8.73347776,23.5298824 4.13917643,23.5298824 C1.69418114,23.5298824 0,22.3303529 0,20.9698824 L0,18.9275294 L0.162747364,18.9275294 C0.880444318,19.3496471 2.18384254,19.6414118 3.51988486,19.6414118 C5.54003383,19.6414118 6.28990178,18.7656471 6.28990178,16.9835294 L6.28990178,0.941647059 Z M32.6440935,0 L34.1452487,0 C35.8413222,0 37.0165096,0.971764706 37.0165096,3.01317647 L37.0165096,8.10023529 C37.8969539,6.83670588 39.397636,5.44329412 41.7801817,5.44329412 C46.250057,5.44329412 49.6762675,9.072 49.6762675,14.2244706 C49.6762675,19.4734118 46.282228,23.7176471 40.9319084,23.7176471 C36.4289159,23.7176471 32.6440935,20.056 32.6440935,14.808 L32.6440935,0 Z M37.0486806,14.192 C37.0486806,18.2098824 38.7778713,19.8621176 41.3879795,19.8621176 C43.5746606,19.8621176 45.1406309,17.7877647 45.1406309,14.9689412 C45.1406309,10.7247059 43.6068316,9.29882353 40.9319084,9.29882353 C38.7125831,9.29882353 37.0486806,11.4701176 37.0486806,14.192 Z M61.5312776,0.941647059 L63.3569813,0.941647059 C65.150514,0.941647059 66.356453,1.91858824 66.9762177,2.99247059 C68.9973129,6.60752941 72.3563428,16.2136471 73.236314,23.2475294 L71.4106103,23.2475294 C69.5517894,23.2475294 68.5738859,22.1727059 68.4101923,21.0978824 C68.215274,19.6324706 68.0194094,18.4927059 67.7913739,17.5482353 L58.8894715,17.5482353 C58.4334004,19.4376471 58.0421444,21.3585882 57.7157034,23.2475294 L55.9874589,23.2475294 C54.5203671,23.2475294 53.9337196,22.4654118 53.9337196,21.0978824 C53.9337196,17.8743529 58.1074326,4.75152941 61.5312776,0.941647059 Z M63.3238641,5.04423529 C62.0195196,7.35623529 60.617716,10.9054118 59.8683212,13.9990588 L66.7803532,13.9990588 C66.0309583,10.8734118 64.4985783,7.12847059 63.3238641,5.04423529 Z M87.6035,0 L88.9504236,0 C91.0519463,0 91.9716581,1.19858824 91.9716581,2.94823529 L91.9716581,15.2607059 C91.9716581,20.3477647 89.541329,23.7176471 83.4657428,23.7176471 C78.8028416,23.7176471 75.2233458,19.7002353 75.2233458,14.9049412 C75.2233458,9.16988235 78.0468233,5.44329412 83.2031708,5.44329412 C84.9763601,5.44329412 86.9137161,6.67482353 87.6035,8.19717647 L87.6035,0 Z M79.5574406,14.0621176 C79.5574406,17.6908235 81.4626256,20.056 83.990887,20.056 C86.4538601,20.056 87.5382118,18.2418824 87.5382118,15.0668235 C87.5382118,10.6922353 85.5999096,9.10494118 83.236288,9.10494118 C81.0027696,9.10494118 79.5574406,11.2432941 79.5574406,14.0621176 Z M107.001188,0 L108.347165,0 C110.448688,0 111.3684,1.19858824 111.3684,2.94823529 L111.3684,15.2607059 C111.3684,20.3477647 108.938071,23.7176471 102.862958,23.7176471 C98.1995835,23.7176471 94.6210339,19.7002353 94.6210339,14.9049412 C94.6210339,9.16988235 97.4445114,5.44329412 102.599913,5.44329412 C104.373575,5.44329412 106.310458,6.67482353 107.001188,8.19717647 L107.001188,0 Z M98.9551286,14.0621176 C98.9551286,17.6908235 100.860314,20.056 103.388575,20.056 C105.851075,20.056 106.934954,18.2418824 106.934954,15.0668235 C106.934954,10.6922353 104.997598,9.10494118 102.63303,9.10494118 C100.400458,9.10494118 98.9551286,11.2432941 98.9551286,14.0621176 Z M114.017776,15.1821176 C114.017776,9.32376471 117.595379,5.64705882 122.605065,5.64705882 C126.24701,5.64705882 129.629695,8.25035294 129.629695,12.448 C129.629695,15.6696471 127.19085,16.7105882 121.401964,16.7105882 L118.539219,16.7105882 C118.864714,18.9242353 120.880605,20.3228235 123.450499,20.3228235 C125.271945,20.3228235 127.418413,19.9651765 128.817378,18.6635294 L128.980125,18.6635294 L128.980125,20.0301176 C128.980125,22.2757647 127.45153,24 122.637236,24 C118.279013,24 114.017776,20.5515294 114.017776,15.1821176 Z M118.539219,13.0334118 L118.506102,13.6197647 L120.458124,13.6197647 C124.588785,13.6197647 125.532625,13.1642353 125.532625,11.9275294 C125.532625,10.1703529 124.231592,9.29129412 122.214282,9.29129412 C120.100458,9.29129412 118.636678,11.0164706 118.539219,13.0334118 Z" id="Mask"></path>
                </g>
            </g>
        </g>
    </g>
</svg>